<?xml version="1.0" encoding="UTF-8" standalone="no"?>
<!DOCTYPE svg PUBLIC "-//W3C//DTD SVG 1.1//EN" "http://www.w3.org/Graphics/SVG/1.1/DTD/svg11.dtd">
<svg width="100%" height="100%" viewBox="0 0 3508 591" version="1.1" xmlns="http://www.w3.org/2000/svg" xmlns:xlink="http://www.w3.org/1999/xlink" xml:space="preserve" xmlns:serif="http://www.serif.com/" style="fill-rule:evenodd;clip-rule:evenodd;stroke-linecap:round;stroke-linejoin:round;stroke-miterlimit:2;">
    <g transform="matrix(1.10566,0,0,1.10566,35.8443,-1340.72)">
        <g>
            <g id="CleanSnake">
                <g transform="matrix(1,0,0,1,-334.094,1133.21)">
                    <text x="382.552px" y="543.763px" style="font-family:'ArialRoundedMTBold', 'Arial Rounded MT Bold', sans-serif;font-size:600px;fill:rgb(160,188,36);stroke:black;stroke-width:18.84px;stroke-dasharray:0,37.68,1507.39,18.84;">R</text>
                    <text x="806.185px" y="543.763px" style="font-family:'ArialRoundedMTBold', 'Arial Rounded MT Bold', sans-serif;font-size:600px;fill:rgb(160,188,36);stroke:black;stroke-width:18.84px;stroke-dasharray:0,37.68,1507.39,56.53;stroke-dashoffset:376.85;">a</text>
                    <text x="1147.79px" y="543.763px" style="font-family:'ArialRoundedMTBold', 'Arial Rounded MT Bold', sans-serif;font-size:600px;fill:rgb(160,188,36);stroke:black;stroke-width:18.84px;stroke-dasharray:0,37.68,1507.39,56.53;">ttle</text>
                    <text x="2091.73px" y="543.763px" style="font-family:'ArialRoundedMTBold', 'Arial Rounded MT Bold', sans-serif;font-size:600px;fill:none;">S</text>
                    <text x="2491.93px" y="543.763px" style="font-family:'ArialRoundedMTBold', 'Arial Rounded MT Bold', sans-serif;font-size:600px;fill:rgb(160,188,36);stroke:black;stroke-width:18.84px;stroke-dasharray:0,37.68,1507.39,56.53;">NP</text>
                </g>
                <g>
                    <g transform="matrix(1,0,0,1,1757,1240.16)">
                        <path d="M373.242,307.91C373.242,333.887 366.553,357.227 353.174,377.93C339.795,398.633 320.215,414.844 294.434,426.563C268.652,438.281 238.055,445.609 202.734,444.141C161.095,442.409 117.663,413.647 91.763,393.918C61.617,370.955 114.536,354.364 120.884,363.544C127.231,372.723 139.8,379.989 152.28,383.527C170.979,388.828 187.651,391.913 207.567,388.298C232.238,383.82 247.119,374.268 263.232,362.256C279.346,350.244 287.402,335.254 287.402,317.285C287.402,303.027 283.057,291.455 274.365,282.568C265.674,273.682 254.443,266.895 240.674,262.207C226.904,257.52 208.496,252.539 185.449,247.266C154.59,240.039 128.76,231.592 107.959,221.924C87.158,212.256 70.654,199.072 58.447,182.373C46.24,165.674 40.137,144.922 40.137,120.117C40.137,96.484 46.582,75.488 59.473,57.129C72.363,38.77 91.016,24.658 115.43,14.795C139.844,4.932 168.555,0 201.563,0C227.93,0 250.732,3.271 269.971,9.814C289.209,16.357 305.176,25.049 317.871,35.889C330.566,46.729 339.844,58.105 345.703,70.02C351.563,81.934 354.492,93.555 354.492,104.883C354.492,115.234 350.83,124.561 343.506,132.861C336.182,141.162 327.051,145.313 316.113,145.313C306.152,145.313 298.584,142.822 293.408,137.842C288.232,132.861 282.617,124.707 276.563,113.379C268.75,97.168 259.375,84.521 248.438,75.439C237.5,66.357 219.922,61.816 195.703,61.816C173.242,61.816 155.127,66.748 141.357,76.611C127.588,86.475 120.703,98.34 120.703,112.207C120.703,120.801 123.047,128.223 127.734,134.473C132.422,140.723 138.867,146.094 147.07,150.586C155.273,155.078 163.574,158.594 171.973,161.133C180.371,163.672 194.238,167.383 213.574,172.266C237.793,177.93 259.717,184.18 279.346,191.016C298.975,197.852 315.674,206.152 329.443,215.918C343.213,225.684 353.955,238.037 361.67,252.979C369.385,267.92 373.242,286.23 373.242,307.91Z" style="fill:rgb(160,188,36);fill-rule:nonzero;"/>
                        <clipPath id="_clip1">
                            <path d="M373.242,307.91C373.242,333.887 366.553,357.227 353.174,377.93C339.795,398.633 320.215,414.844 294.434,426.563C268.652,438.281 238.055,445.609 202.734,444.141C161.095,442.409 117.663,413.647 91.763,393.918C61.617,370.955 114.536,354.364 120.884,363.544C127.231,372.723 139.8,379.989 152.28,383.527C170.979,388.828 187.651,391.913 207.567,388.298C232.238,383.82 247.119,374.268 263.232,362.256C279.346,350.244 287.402,335.254 287.402,317.285C287.402,303.027 283.057,291.455 274.365,282.568C265.674,273.682 254.443,266.895 240.674,262.207C226.904,257.52 208.496,252.539 185.449,247.266C154.59,240.039 128.76,231.592 107.959,221.924C87.158,212.256 70.654,199.072 58.447,182.373C46.24,165.674 40.137,144.922 40.137,120.117C40.137,96.484 46.582,75.488 59.473,57.129C72.363,38.77 91.016,24.658 115.43,14.795C139.844,4.932 168.555,0 201.563,0C227.93,0 250.732,3.271 269.971,9.814C289.209,16.357 305.176,25.049 317.871,35.889C330.566,46.729 339.844,58.105 345.703,70.02C351.563,81.934 354.492,93.555 354.492,104.883C354.492,115.234 350.83,124.561 343.506,132.861C336.182,141.162 327.051,145.313 316.113,145.313C306.152,145.313 298.584,142.822 293.408,137.842C288.232,132.861 282.617,124.707 276.563,113.379C268.75,97.168 259.375,84.521 248.438,75.439C237.5,66.357 219.922,61.816 195.703,61.816C173.242,61.816 155.127,66.748 141.357,76.611C127.588,86.475 120.703,98.34 120.703,112.207C120.703,120.801 123.047,128.223 127.734,134.473C132.422,140.723 138.867,146.094 147.07,150.586C155.273,155.078 163.574,158.594 171.973,161.133C180.371,163.672 194.238,167.383 213.574,172.266C237.793,177.93 259.717,184.18 279.346,191.016C298.975,197.852 315.674,206.152 329.443,215.918C343.213,225.684 353.955,238.037 361.67,252.979C369.385,267.92 373.242,286.23 373.242,307.91Z" clip-rule="nonzero"/>
                        </clipPath>
                        <g clip-path="url(#_clip1)">
                            <g transform="matrix(1,0,0,1,-1757,-1240.16)">
                                <ellipse cx="1817.79" cy="1292.85" rx="45.395" ry="36.54" style="fill:rgb(251,229,130);stroke:black;stroke-width:11.31px;stroke-miterlimit:1.5;"/>
                            </g>
                            <g transform="matrix(0.432874,0,0,0.432874,-669.006,-415.729)">
                                <ellipse cx="1817.79" cy="1292.85" rx="45.395" ry="36.54" style="fill:rgb(251,229,130);stroke:black;stroke-width:26.12px;stroke-miterlimit:1.5;"/>
                            </g>
                            <g transform="matrix(0.432874,0,0,0.432874,-548.57,-162.582)">
                                <ellipse cx="1817.79" cy="1292.85" rx="45.395" ry="36.54" style="fill:rgb(251,229,130);stroke:black;stroke-width:26.12px;stroke-miterlimit:1.5;"/>
                            </g>
                            <g transform="matrix(0.610476,0.221186,-0.170599,0.470854,-641.03,-992.028)">
                                <ellipse cx="1817.79" cy="1292.85" rx="45.395" ry="36.54" style="fill:rgb(251,229,130);stroke:black;stroke-width:19.5px;stroke-miterlimit:1.5;"/>
                            </g>
                            <g transform="matrix(0.998419,0.451721,-0.293826,0.649431,-1233.15,-1418.14)">
                                <ellipse cx="1817.79" cy="1292.85" rx="45.395" ry="36.54" style="fill:rgb(251,229,130);stroke:black;stroke-width:12.23px;stroke-miterlimit:1.5;"/>
                            </g>
                            <g transform="matrix(0.734505,0.0383514,-0.0471914,0.903808,-915.971,-927.532)">
                                <ellipse cx="1817.79" cy="1292.85" rx="45.395" ry="36.54" style="fill:rgb(251,229,130);stroke:black;stroke-width:13.71px;stroke-miterlimit:1.5;"/>
                            </g>
                        </g>
                        <path d="M373.242,307.91C373.242,333.887 366.553,357.227 353.174,377.93C339.795,398.633 320.215,414.844 294.434,426.563C268.652,438.281 238.055,445.609 202.734,444.141C161.095,442.409 117.663,413.647 91.763,393.918C61.617,370.955 114.536,354.364 120.884,363.544C127.231,372.723 139.8,379.989 152.28,383.527C170.979,388.828 187.651,391.913 207.567,388.298C232.238,383.82 247.119,374.268 263.232,362.256C279.346,350.244 287.402,335.254 287.402,317.285C287.402,303.027 283.057,291.455 274.365,282.568C265.674,273.682 254.443,266.895 240.674,262.207C226.904,257.52 208.496,252.539 185.449,247.266C154.59,240.039 128.76,231.592 107.959,221.924C87.158,212.256 70.654,199.072 58.447,182.373C46.24,165.674 40.137,144.922 40.137,120.117C40.137,96.484 46.582,75.488 59.473,57.129C72.363,38.77 91.016,24.658 115.43,14.795C139.844,4.932 168.555,0 201.563,0C227.93,0 250.732,3.271 269.971,9.814C289.209,16.357 305.176,25.049 317.871,35.889C330.566,46.729 339.844,58.105 345.703,70.02C351.563,81.934 354.492,93.555 354.492,104.883C354.492,115.234 350.83,124.561 343.506,132.861C336.182,141.162 327.051,145.313 316.113,145.313C306.152,145.313 298.584,142.822 293.408,137.842C288.232,132.861 282.617,124.707 276.563,113.379C268.75,97.168 259.375,84.521 248.438,75.439C237.5,66.357 219.922,61.816 195.703,61.816C173.242,61.816 155.127,66.748 141.357,76.611C127.588,86.475 120.703,98.34 120.703,112.207C120.703,120.801 123.047,128.223 127.734,134.473C132.422,140.723 138.867,146.094 147.07,150.586C155.273,155.078 163.574,158.594 171.973,161.133C180.371,163.672 194.238,167.383 213.574,172.266C237.793,177.93 259.717,184.18 279.346,191.016C298.975,197.852 315.674,206.152 329.443,215.918C343.213,225.684 353.955,238.037 361.67,252.979C369.385,267.92 373.242,286.23 373.242,307.91Z" style="fill:none;fill-rule:nonzero;stroke:black;stroke-width:18.84px;stroke-dasharray:0,37.68,1507.39,56.53;stroke-dashoffset:37.68;"/>
                    </g>
                    <g id="Rattle" transform="matrix(0.0994164,0.966676,0.952436,-0.00166231,1334.07,1304.88)">
                        <g transform="matrix(0.941797,-0.0372418,-0.0579439,0.944009,39.9313,134.294)">
                            <path d="M178.614,239.261C215.484,239.261 245.413,269.199 245.413,306.068C245.413,342.937 215.484,372.874 178.615,372.874C141.745,372.874 111.816,342.937 111.816,306.067C111.816,269.198 141.745,239.261 178.614,239.261L178.614,239.261Z" style="fill:none;stroke:white;stroke-width:41.71px;stroke-miterlimit:1.5;"/>
                        </g>
                        <g transform="matrix(0.941797,-0.0372418,-0.0579439,0.944009,39.9313,134.294)">
                            <circle cx="178.615" cy="306.068" r="66.379" style="fill:rgb(232,0,113);"/>
                            <clipPath id="_clip2">
                                <circle cx="178.615" cy="306.068" r="66.379"/>
                            </clipPath>
                            <g clip-path="url(#_clip2)">
                                <g transform="matrix(0.483874,-0.630226,0.918359,0.705096,-348.004,97.7058)">
                                    <rect x="103.031" y="453.978" width="186.985" height="31.779" style="fill:rgb(255,169,211);"/>
                                    <clipPath id="_clip3">
                                        <rect x="103.031" y="453.978" width="186.985" height="31.779"/>
                                    </clipPath>
                                    <g clip-path="url(#_clip3)">
                                        <g transform="matrix(0.76645,0.685064,-0.99827,0.525977,454.13,122.235)">
                                            <path d="M166.131,474.757L145.142,440.955L190.531,442.978L170.707,408.379L208.797,418.465L194.746,376.346L231.851,388.438L216.249,348.34L254.434,359.747" style="fill:none;stroke:rgb(207,45,255);stroke-width:10.43px;stroke-miterlimit:1.5;"/>
                                        </g>
                                    </g>
                                    <rect x="103.031" y="453.978" width="186.985" height="31.779" style="fill:none;stroke:black;stroke-width:12.48px;stroke-miterlimit:1.5;"/>
                                </g>
                            </g>
                            <circle cx="178.615" cy="306.068" r="66.379" style="fill:none;stroke:black;stroke-width:12.51px;stroke-miterlimit:1.5;"/>
                        </g>
                        <g transform="matrix(-1.52682,0.378547,0.225411,1.4993,1573.79,-2299.69)">
                            <path d="M1062.6,1582.92C1064.03,1582.92 1075.83,1583.12 1075.83,1583.12C1085.06,1561.49 1099.41,1553.04 1102.61,1554.85C1105.49,1557.62 1107.75,1559.47 1111.42,1562.28C1113.79,1565.57 1108.03,1579.86 1089.17,1595.63C1089.17,1595.63 1090.54,1603.47 1090.27,1610.6C1089.69,1625.86 1077.87,1638.27 1062.6,1638.27C1047.32,1638.27 1034.92,1625.87 1034.92,1610.6C1034.92,1595.32 1047.32,1582.92 1062.6,1582.92ZM1062.6,1596.76C1070.23,1596.76 1076.43,1602.96 1076.43,1610.6C1076.43,1618.23 1070.23,1624.43 1062.6,1624.43C1054.96,1624.43 1048.76,1618.23 1048.76,1610.6C1048.76,1602.96 1054.96,1596.76 1062.6,1596.76Z" style="fill:rgb(250,175,52);stroke:black;stroke-width:7.67px;stroke-miterlimit:1.5;"/>
                        </g>
                        <g transform="matrix(0.764566,-0.11435,0.0840401,0.567711,13.408,224.657)">
                            <path d="M163.749,516.348C179.21,520.706 196.204,518.946 212.318,512.224" style="fill:none;stroke:black;stroke-width:8.25px;stroke-miterlimit:1.5;"/>
                        </g>
                        <g transform="matrix(0.763509,-0.132685,0.102112,0.590728,4.6298,219.24)">
                            <path d="M177.094,533.392C186.299,534.629 191.687,534.503 201.472,531.587" style="fill:none;stroke:black;stroke-width:8.11px;stroke-miterlimit:1.5;"/>
                        </g>
                        <g transform="matrix(0.157459,-0.815494,0.750549,0.156642,-144.536,488.935)">
                            <path d="M162.957,517.116C179.291,520.391 198,517.647 211.75,511.419" style="fill:none;stroke:black;stroke-width:7.76px;stroke-miterlimit:1.5;"/>
                        </g>
                        <g transform="matrix(0.132189,-0.817605,0.474334,0.0822986,6.2144,529.054)">
                            <path d="M177.076,533.39C185.739,535.304 194.269,534.039 202.257,530.563" style="fill:none;stroke:black;stroke-width:9.2px;stroke-miterlimit:1.5;"/>
                        </g>
                    </g>
                    <g transform="matrix(0.668743,0.0416656,-0.058454,0.938201,1809.68,1261.05)">
                        <path d="M124.421,350.992C127.333,354.388 130.938,358.247 132.128,361.978C133.283,365.603 133.33,369.983 131.558,373.379C129.61,377.111 126.037,380.752 121.782,382.874C115.971,385.773 106.238,388.123 98.83,386.258C81.879,381.992 74.082,366.255 68.973,348.918C65.792,338.124 64.824,335.928 62.94,328.646C58.298,310.71 52.431,287.842 60.446,281.063C63.829,278.203 71.547,275.898 77.005,281.27C83.547,287.709 90.586,308.948 98.383,322.628C107.985,339.477 118.797,344.434 124.421,350.992Z" style="fill:rgb(160,188,36);fill-rule:nonzero;stroke:black;stroke-width:13.85px;"/>
                    </g>
                </g>
            </g>
            <g transform="matrix(1,0,0,1,-261.991,1175.77)">
                <path d="M2376.32,217.394L2393.28,217.394" style="fill:none;stroke:black;stroke-width:18.84px;stroke-linejoin:miter;stroke-miterlimit:1.5;stroke-dasharray:0,37.68,376.85,56.53;stroke-dashoffset:188.42;"/>
            </g>
        </g>
        <g transform="matrix(1,0,0,1,-261.991,1175.77)">
            <path d="M2345.03,183.533L2376.32,217.394L2377.57,235.081" style="fill:none;stroke:black;stroke-width:18.84px;stroke-linejoin:miter;stroke-miterlimit:1.5;stroke-dasharray:0,37.68,376.85,56.53;stroke-dashoffset:188.42;"/>
        </g>
    </g>
</svg>
